<svg xmlns="http://www.w3.org/2000/svg" width="762" height="97" viewBox="0 0 762 97" fill="none">

<path d="M290.895 67.92C293.855 67.92 296.441 68.5067 298.655 69.68C300.868 70.8533 302.575 72.5067 303.775 74.64C305.001 76.7467 305.615 79.1867 305.615 81.96C305.615 84.7067 305.001 87.1467 303.775 89.28C302.575 91.4133 300.855 93.0667 298.615 94.24C296.401 95.4133 293.828 96 290.895 96H280.375V67.92H290.895ZM290.455 90.08C293.041 90.08 295.055 89.3733 296.495 87.96C297.935 86.5467 298.655 84.5467 298.655 81.96C298.655 79.3733 297.935 77.36 296.495 75.92C295.055 74.48 293.041 73.76 290.455 73.76H287.215V90.08H290.455ZM308.077 84.8C308.077 82.5067 308.504 80.4933 309.357 78.76C310.237 77.0267 311.424 75.6933 312.917 74.76C314.41 73.8267 316.077 73.36 317.917 73.36C319.49 73.36 320.864 73.68 322.037 74.32C323.237 74.96 324.157 75.8 324.797 76.84V73.68H331.637V96H324.797V92.84C324.13 93.88 323.197 94.72 321.997 95.36C320.824 96 319.45 96.32 317.877 96.32C316.064 96.32 314.41 95.8533 312.917 94.92C311.424 93.96 310.237 92.6133 309.357 90.88C308.504 89.12 308.077 87.0933 308.077 84.8ZM324.797 84.84C324.797 83.1333 324.317 81.7867 323.357 80.8C322.424 79.8133 321.277 79.32 319.917 79.32C318.557 79.32 317.397 79.8133 316.437 80.8C315.504 81.76 315.037 83.0933 315.037 84.8C315.037 86.5067 315.504 87.8667 316.437 88.88C317.397 89.8667 318.557 90.36 319.917 90.36C321.277 90.36 322.424 89.8667 323.357 88.88C324.317 87.8933 324.797 86.5467 324.797 84.84ZM343.425 77.4C344.225 76.1733 345.225 75.2133 346.425 74.52C347.625 73.8 348.959 73.44 350.425 73.44V80.68H348.545C346.839 80.68 345.559 81.0533 344.705 81.8C343.852 82.52 343.425 83.8 343.425 85.64V96H336.585V73.68H343.425V77.4ZM367.335 96L360.535 86.64V96H353.695V66.4H360.535V82.76L367.295 73.68H375.735L366.455 84.88L375.815 96H367.335ZM425.538 67.92L418.218 96H409.938L405.458 77.52L400.818 96H392.538L385.418 67.92H392.738L396.778 88.36L401.778 67.92H409.298L414.098 88.36L418.178 67.92H425.538ZM450.008 84.48C450.008 85.12 449.968 85.7867 449.888 86.48H434.408C434.515 87.8667 434.955 88.9333 435.728 89.68C436.528 90.4 437.502 90.76 438.648 90.76C440.355 90.76 441.542 90.04 442.208 88.6H449.488C449.115 90.0667 448.435 91.3867 447.448 92.56C446.488 93.7333 445.275 94.6533 443.808 95.32C442.342 95.9867 440.702 96.32 438.888 96.32C436.702 96.32 434.755 95.8533 433.048 94.92C431.342 93.9867 430.008 92.6533 429.048 90.92C428.088 89.1867 427.608 87.16 427.608 84.84C427.608 82.52 428.075 80.4933 429.008 78.76C429.968 77.0267 431.302 75.6933 433.008 74.76C434.715 73.8267 436.675 73.36 438.888 73.36C441.048 73.36 442.968 73.8133 444.648 74.72C446.328 75.6267 447.635 76.92 448.568 78.6C449.528 80.28 450.008 82.24 450.008 84.48ZM443.008 82.68C443.008 81.5067 442.608 80.5733 441.808 79.88C441.008 79.1867 440.008 78.84 438.808 78.84C437.662 78.84 436.688 79.1733 435.888 79.84C435.115 80.5067 434.635 81.4533 434.448 82.68H443.008ZM452.257 84.8C452.257 82.5067 452.683 80.4933 453.537 78.76C454.417 77.0267 455.603 75.6933 457.097 74.76C458.59 73.8267 460.257 73.36 462.097 73.36C463.67 73.36 465.043 73.68 466.217 74.32C467.417 74.96 468.337 75.8 468.977 76.84V73.68H475.817V96H468.977V92.84C468.31 93.88 467.377 94.72 466.177 95.36C465.003 96 463.63 96.32 462.057 96.32C460.243 96.32 458.59 95.8533 457.097 94.92C455.603 93.96 454.417 92.6133 453.537 90.88C452.683 89.12 452.257 87.0933 452.257 84.8ZM468.977 84.84C468.977 83.1333 468.497 81.7867 467.537 80.8C466.603 79.8133 465.457 79.32 464.097 79.32C462.737 79.32 461.577 79.8133 460.617 80.8C459.683 81.76 459.217 83.0933 459.217 84.8C459.217 86.5067 459.683 87.8667 460.617 88.88C461.577 89.8667 462.737 90.36 464.097 90.36C465.457 90.36 466.603 89.8667 467.537 88.88C468.497 87.8933 468.977 86.5467 468.977 84.84ZM493.205 90.2V96H489.725C487.245 96 485.312 95.4 483.925 94.2C482.538 92.9733 481.845 90.9867 481.845 88.24V79.36H479.125V73.68H481.845V68.24H488.685V73.68H493.165V79.36H488.685V88.32C488.685 88.9867 488.845 89.4667 489.165 89.76C489.485 90.0533 490.018 90.2 490.765 90.2H493.205ZM510.735 73.44C513.295 73.44 515.348 74.2933 516.895 76C518.442 77.68 519.215 80 519.215 82.96V96H512.415V83.88C512.415 82.3867 512.028 81.2267 511.255 80.4C510.482 79.5733 509.442 79.16 508.135 79.16C506.828 79.16 505.788 79.5733 505.015 80.4C504.242 81.2267 503.855 82.3867 503.855 83.88V96H497.015V66.4H503.855V76.68C504.548 75.6933 505.495 74.9067 506.695 74.32C507.895 73.7333 509.242 73.44 510.735 73.44ZM545.008 84.48C545.008 85.12 544.968 85.7867 544.888 86.48H529.408C529.515 87.8667 529.955 88.9333 530.728 89.68C531.528 90.4 532.502 90.76 533.648 90.76C535.355 90.76 536.542 90.04 537.208 88.6H544.488C544.115 90.0667 543.435 91.3867 542.448 92.56C541.488 93.7333 540.275 94.6533 538.808 95.32C537.342 95.9867 535.702 96.32 533.888 96.32C531.702 96.32 529.755 95.8533 528.048 94.92C526.342 93.9867 525.008 92.6533 524.048 90.92C523.088 89.1867 522.608 87.16 522.608 84.84C522.608 82.52 523.075 80.4933 524.008 78.76C524.968 77.0267 526.302 75.6933 528.008 74.76C529.715 73.8267 531.675 73.36 533.888 73.36C536.048 73.36 537.968 73.8133 539.648 74.72C541.328 75.6267 542.635 76.92 543.568 78.6C544.528 80.28 545.008 82.24 545.008 84.48ZM538.008 82.68C538.008 81.5067 537.608 80.5733 536.808 79.88C536.008 79.1867 535.008 78.84 533.808 78.84C532.662 78.84 531.688 79.1733 530.888 79.84C530.115 80.5067 529.635 81.4533 529.448 82.68H538.008ZM555.457 77.4C556.257 76.1733 557.257 75.2133 558.457 74.52C559.657 73.8 560.99 73.44 562.457 73.44V80.68H560.577C558.87 80.68 557.59 81.0533 556.737 81.8C555.883 82.52 555.457 83.8 555.457 85.64V96H548.617V73.68H555.457V77.4ZM574.726 66.92L573.926 86.08H568.126L567.326 66.92H574.726ZM571.126 96.32C569.926 96.32 568.939 95.9733 568.166 95.28C567.419 94.56 567.046 93.68 567.046 92.64C567.046 91.5733 567.419 90.68 568.166 89.96C568.939 89.24 569.926 88.88 571.126 88.88C572.299 88.88 573.259 89.24 574.006 89.96C574.779 90.68 575.166 91.5733 575.166 92.64C575.166 93.68 574.779 94.56 574.006 95.28C573.259 95.9733 572.299 96.32 571.126 96.32Z" fill="url(#paint0_linear_4_35)"/>
<defs>
<linearGradient id="paint0_linear_4_35" x1="296.5" y1="89.5505" x2="659.706" y2="121.939" gradientUnits="userSpaceOnUse">
<stop stop-color="#CAECFF"/>
<stop offset="1" stop-color="#78CFFF"/>
</linearGradient>
</defs>
</svg>